<svg width="563" height="562" viewBox="0 0 563 562" fill="none" xmlns="http://www.w3.org/2000/svg">
<g filter="url(#filter0_i_13_121)">
<path d="M461.741 496.453H158.099V534.906H461.741V496.453Z" fill="#CD5959"/>
<path d="M309.988 562C393.873 562 461.876 549.869 461.876 534.906C461.876 519.941 393.873 507.811 309.988 507.811C226.102 507.811 158.099 519.941 158.099 534.906C158.099 549.869 226.102 562 309.988 562Z" fill="#CD5959"/>
<path d="M309.988 523.547C393.873 523.547 461.876 511.416 461.876 496.453C461.876 481.488 393.873 469.359 309.988 469.359C226.102 469.359 158.099 481.488 158.099 496.453C158.099 511.416 226.102 523.547 309.988 523.547Z" fill="#CD5959"/>
<path opacity="0.6" d="M428.798 159.253C428.798 149.315 375.603 141.269 309.988 141.269C244.372 141.269 191.177 149.315 191.177 159.253C191.177 159.371 191.177 159.49 191.312 159.726H191.177V496.453H428.663V159.726H428.528C428.663 159.608 428.798 159.371 428.798 159.253Z" fill="url(#paint0_linear_13_121)" stroke="black"/>
<path d="M309.988 514.437C375.605 514.437 428.798 506.386 428.798 496.453C428.798 486.52 375.605 478.469 309.988 478.469C244.37 478.469 191.177 486.52 191.177 496.453C191.177 506.386 244.37 514.437 309.988 514.437Z" fill="#F0FBFF"/>
<path d="M306.342 333.296C306.342 333.296 309.582 368.672 311.203 376.717C329.294 385.473 340.5 363.584 340.5 363.584C340.5 363.584 338.745 352.463 338.745 350.925C338.745 349.505 344.146 326.67 344.146 326.67L306.342 333.296Z" fill="#E28B6D"/>
<path d="M269.079 331.757L271.644 353.883L303.777 358.97C303.777 358.97 307.017 349.623 306.207 334.834C305.397 320.044 269.079 331.757 269.079 331.757Z" fill="#E28B6D"/>
<path d="M244.102 482.728C246.532 475.984 250.987 467.584 258.008 457.172C258.818 422.624 260.843 389.851 266.649 378.374C272.454 366.897 271.509 353.054 271.509 347.139C282.04 340.04 303.372 353.883 303.372 353.883C303.237 354.119 304.587 356.012 304.452 356.249C298.917 374.233 277.855 441.673 272.589 458.001C270.429 469.004 267.054 480.954 263.003 489.827C255.713 491.72 249.232 490.182 244.102 482.728Z" fill="#E28B6D"/>
<path d="M248.827 503.907C242.212 502.605 239.511 495.506 244.102 482.728C249.232 490.182 255.713 491.72 263.138 489.827C265.434 498.938 255.578 505.208 248.827 503.907Z" fill="#595E8D"/>
<path d="M312.823 486.515C312.823 485.213 312.688 484.03 312.688 482.61C312.688 466.283 314.038 458 314.038 458C314.038 458 310.528 363.348 310.933 354.001C316.333 342.643 336.315 351.989 336.315 351.989H337.665C339.555 359.443 346.711 381.805 341.04 406.533C335.37 431.261 331.184 452.795 331.049 460.722C330.914 464.626 333.075 474.565 334.02 483.912C327.809 489.236 319.573 490.892 312.823 486.515Z" fill="#E28B6D"/>
<path d="M328.079 503.197C317.278 504.144 313.363 499.767 312.688 486.516C319.438 490.893 327.674 489.236 333.75 483.912C334.695 493.614 334.155 502.724 328.079 503.197Z" fill="#595E8D"/>
<path d="M521.416 387.839C521.281 387.721 502.38 383.816 497.924 388.312C493.469 392.808 503.325 399.316 503.325 399.316" fill="#9BC3EA"/>
<path d="M542.073 413.987C542.208 414.105 539.643 431.024 533.297 433.154C526.952 435.284 523.442 424.872 523.442 424.872" fill="#9BC3EA"/>
<path d="M514.278 429.116C521.813 424.536 523.686 415.469 518.46 408.865C513.232 402.261 502.886 400.62 495.35 405.201C487.813 409.781 485.942 418.847 491.168 425.452C496.395 432.056 506.742 433.697 514.278 429.116Z" fill="#9BC3EA"/>
<path d="M494.819 399.552C492.119 401.445 489.689 403.457 487.393 405.586C494.684 406.77 501.57 410.437 506.16 416.235C510.75 422.032 512.236 429.013 511.02 435.402C513.991 434.219 516.961 432.917 520.066 431.379C520.201 424.99 517.906 418.128 513.181 411.976C508.455 405.823 501.84 401.8 494.819 399.552Z" fill="#AED6F4"/>
<path d="M544.773 392.927C541.668 389.022 539.778 384.763 539.238 380.504C526.952 382.988 512.1 388.904 500.894 395.766C498.869 397.068 496.844 398.369 494.954 399.671C501.84 401.8 508.455 406.06 513.316 412.094C518.176 418.128 520.336 424.99 520.201 431.498C522.226 430.433 524.387 429.25 526.412 428.067C537.753 421.204 549.094 411.147 556.114 401.919C551.794 399.789 547.879 396.831 544.773 392.927Z" fill="#AED6F4"/>
<path d="M555.979 401.8C561.92 393.992 564.62 386.774 561.515 382.633C558.275 378.492 549.634 378.256 539.103 380.385C539.778 384.526 541.533 388.904 544.638 392.808C547.879 396.831 551.794 399.789 555.979 401.8Z" fill="#595E8D"/>
<path d="M531.677 409.491C537.121 409.491 541.533 405.624 541.533 400.854C541.533 396.083 537.121 392.217 531.677 392.217C526.234 392.217 521.821 396.083 521.821 400.854C521.821 405.624 526.234 409.491 531.677 409.491Z" fill="#9BC3EA"/>
<path d="M531.677 406.77C535.405 406.77 538.428 404.122 538.428 400.854C538.428 397.587 535.405 394.938 531.677 394.938C527.95 394.938 524.927 397.587 524.927 400.854C524.927 404.122 527.95 406.77 531.677 406.77Z" fill="white"/>
<path d="M474.702 437.532C474.702 437.532 458.906 446.169 458.231 445.341C457.556 444.512 472.407 434.574 472.407 434.574C472.407 434.574 488.203 425.937 488.878 426.765C489.553 427.593 474.702 437.532 474.702 437.532Z" fill="#AED6F4"/>
<path d="M476.862 425.7C476.862 425.7 465.521 431.616 464.981 430.788C464.306 429.96 474.567 422.742 474.567 422.742C474.567 422.742 485.908 416.826 486.448 417.655C487.123 418.601 476.862 425.7 476.862 425.7Z" fill="#AED6F4"/>
<path d="M488.068 439.898C488.068 439.898 476.727 445.814 476.187 444.986C475.512 444.157 485.773 436.94 485.773 436.94C485.773 436.94 497.114 431.024 497.654 431.853C498.329 432.681 488.068 439.898 488.068 439.898Z" fill="#AED6F4"/>
<path opacity="0.4" d="M112.195 188.004C112.195 208.472 149.998 226.575 207.648 237.46V138.666C149.998 149.433 112.195 167.535 112.195 188.004Z" fill="url(#paint1_linear_13_121)"/>
<path opacity="0.4" d="M555.169 188.004C555.169 158.898 491.174 134.525 389.78 129.083V246.097C472.407 241.128 555.169 217.109 555.169 188.004Z" fill="url(#paint2_linear_13_121)"/>
<path d="M136.632 117.488C121.241 102.698 122.456 79.6265 139.467 66.2568L143.653 70.2796C129.341 81.7562 128.261 101.278 141.223 113.82C154.319 126.361 176.596 127.308 190.907 115.949C205.218 104.473 206.298 84.9507 193.337 72.4093L197.928 68.7415C213.319 83.5309 212.104 106.603 195.092 120.091C178.216 133.46 152.023 132.395 136.632 117.488Z" fill="#EA0CEF"/>
<path d="M145.813 110.27C135.012 99.8586 135.957 83.7677 147.703 74.3024C159.584 64.8371 177.946 65.6654 188.747 75.9588C199.548 86.2523 198.603 102.462 186.722 111.927C174.976 121.392 156.614 120.682 145.813 110.27ZM185.506 78.5618C176.326 69.6881 160.799 69.0965 150.673 77.142C140.547 85.1875 139.872 98.7938 149.053 107.667C158.234 116.541 173.76 117.133 183.886 109.087C193.877 101.042 194.687 87.4355 185.506 78.5618Z" fill="#EA0CEF"/>
<path d="M179.701 105.064L176.731 102.225C170.925 106.839 162.014 106.484 156.884 101.396C151.618 96.4271 152.024 88.5 157.829 84.004C163.5 79.3897 172.545 79.8629 177.676 84.8322C178.891 86.0153 179.836 87.3168 180.376 88.7366L184.561 87.4351C183.751 85.5421 182.536 83.7673 180.916 82.2292C174.03 75.6036 162.284 75.1303 154.859 81.1644C147.298 87.1985 146.758 97.492 153.644 103.999C160.394 110.625 172.14 111.098 179.701 105.064Z" fill="#EB0CEF"/>
<path d="M447.835 69.2146C455.26 62.3523 467.546 62.1157 475.242 68.623L473.217 70.5161C466.601 65.0736 456.206 65.3102 449.86 71.1077C443.649 76.9051 443.919 86.0155 450.535 91.5763C457.151 97.0188 467.546 96.7822 473.892 90.9847L476.052 92.7595C468.627 99.5035 456.34 99.8584 448.645 93.351C440.814 86.8437 440.409 76.0769 447.835 69.2146Z" fill="#AED6F4"/>
<path d="M452.02 72.7641C457.151 68.0314 465.791 67.7948 471.192 72.2908C476.592 76.7868 476.862 84.359 471.732 89.0916C466.601 93.8243 457.961 94.0609 452.56 89.5649C447.16 85.0689 446.89 77.4967 452.02 72.7641ZM470.247 87.9085C474.567 83.8857 474.432 77.4967 469.842 73.5923C465.251 69.8062 457.961 69.9245 453.505 73.9472C449.185 77.97 449.32 84.359 453.91 88.2634C458.636 92.1679 465.926 91.9312 470.247 87.9085Z" fill="#AED6F4"/>
<path d="M455.935 86.4886L457.421 85.1872C454.72 82.9392 454.72 79.3897 457.151 77.0234C459.581 74.7754 463.766 74.6571 466.466 76.7867C469.032 78.9164 469.167 82.5842 466.736 84.9505C466.196 85.5421 465.521 85.8971 464.711 86.252L465.521 87.9084C466.466 87.5535 467.411 86.9619 468.222 86.252C471.462 83.1758 471.327 78.4432 467.952 75.4853C464.441 72.6457 459.041 72.764 455.665 75.7219C452.29 78.7981 452.56 83.6491 455.935 86.4886Z" fill="#AED6F4"/>
<g filter="url(#filter1_b_13_121)">
<path d="M309.853 98.2026C309.853 98.2026 303.912 93.8249 292.976 99.6224C282.04 105.538 280.015 128.136 284.335 137.72C288.656 147.303 319.573 145.41 325.514 137.72C331.724 130.147 329.024 99.7407 309.853 98.2026Z" fill="#442617"/>
</g>
<g filter="url(#filter2_b_13_121)">
<path d="M310.933 102.58C300.807 101.279 292.301 112.045 291.761 118.316C291.356 124.587 295.001 140.796 311.473 140.677C327.944 140.559 326.324 104.473 310.933 102.58Z" fill="#C66758"/>
</g>
<path d="M292.976 121.155C292.976 121.155 290.681 118.552 288.926 119.854C287.306 121.155 290.411 133.105 294.731 129.556C299.187 125.888 292.976 121.155 292.976 121.155Z" fill="#C66758"/>
<g filter="url(#filter3_b_13_121)">
<path d="M378.844 125.651L376.278 121.984C376.278 121.984 376.413 108.141 372.768 106.839C369.123 105.538 357.512 107.194 357.512 107.194C357.512 107.194 349.681 94.5345 347.791 94.6529C345.766 94.7712 346.576 97.7291 349.006 101.87C351.436 106.011 353.731 110.744 353.866 111.217C354.001 111.69 357.377 120.445 358.727 122.102C360.077 123.877 366.017 126.48 366.017 126.48L367.773 129.437L378.844 125.651Z" fill="#C66758"/>
</g>
<path d="M310.933 163.512C321.869 162.802 325.514 154.639 326.594 148.25C324.704 148.131 322.409 148.013 320.788 148.013C319.573 148.013 318.628 147.185 318.628 146.12L317.953 131.33L294.866 130.147C294.866 130.147 296.891 147.895 293.786 150.379C293.246 150.734 292.301 151.089 290.951 151.563C292.706 156.295 297.836 164.341 310.933 163.512Z" fill="#C66758"/>
<path d="M316.873 138.548C316.873 138.548 307.017 143.635 300.537 137.01C306.612 144.7 310.798 145.173 316.873 138.548Z" fill="#BA504A"/>
<path d="M297.161 212.732C296.081 204.213 294.326 195.694 292.166 187.294C289.331 175.936 285.955 164.814 282.04 153.811C272.994 155.94 261.653 159.135 259.763 164.696C256.658 173.806 274.074 219.239 275.019 223.853C275.965 228.349 265.974 264.791 265.974 264.791C265.974 264.791 279.07 271.298 298.647 274.138C298.647 253.551 299.727 233.082 297.161 212.732Z" fill="#F7BF74"/>
<g filter="url(#filter4_b_13_121)">
<path d="M379.789 123.758C374.658 125.651 363.452 128.254 363.452 128.254L369.663 155.23C369.663 155.23 344.821 149.433 336.315 148.841C335.1 148.723 333.885 148.723 332.805 148.605C324.029 190.015 324.434 232.845 333.885 274.019C340.365 273.073 347.116 271.416 354.001 269.05C348.871 245.032 341.58 221.842 341.58 221.014C341.58 220.186 345.091 184.218 347.386 181.97C349.546 179.722 382.354 179.248 388.97 172.268C395.45 165.287 386.404 135.59 379.789 123.758Z" fill="#F7BF74"/>
</g>
<path d="M332.805 148.723C330.509 148.605 328.349 148.486 326.594 148.368C325.514 154.757 321.869 162.921 310.933 163.631C297.836 164.459 292.706 156.295 290.816 151.681C288.656 152.272 285.55 152.982 282.04 153.811C285.955 164.814 289.331 176.054 292.166 187.294C294.191 195.694 295.946 204.213 297.161 212.732C299.727 233.082 298.646 253.551 298.646 274.019C308.907 275.557 321.058 276.031 333.885 274.138C324.434 232.845 324.029 190.133 332.805 148.723Z" fill="#EFDF4C" fill-opacity="0.44"/>
<g opacity="0.4" filter="url(#filter5_b_13_121)">
<path d="M392.885 103.763V103.881C393.02 103.763 393.02 103.763 393.154 103.645C393.02 103.645 392.885 103.645 392.885 103.763Z" fill="url(#paint3_linear_13_121)"/>
<path d="M344.956 70.0428C345.091 70.1611 345.091 70.1611 345.091 70.5161C345.226 70.2794 345.496 70.1611 345.901 70.1611C345.766 70.0428 345.631 70.0428 345.496 70.1611C345.361 70.0428 345.496 70.0428 345.496 69.9245C345.361 69.9245 345.361 69.9245 345.091 69.6879C345.091 69.6879 345.091 69.6879 344.956 69.8062C344.821 70.0428 344.551 69.9245 344.281 69.8062C344.281 69.9245 344.281 69.9245 344.281 69.9245C344.551 69.9245 344.821 69.9245 344.956 70.0428Z" fill="url(#paint4_linear_13_121)"/>
<path d="M380.059 111.217C380.464 110.98 381.004 110.862 381.409 110.625C380.869 110.744 380.329 110.98 380.329 110.98C380.194 111.099 380.194 111.217 380.059 111.217Z" fill="url(#paint5_linear_13_121)"/>
<path d="M399.095 44.3683C398.825 44.1317 398.555 43.895 398.285 43.6584C398.555 44.0133 398.96 44.25 399.23 44.6049C399.23 44.4866 399.23 44.3683 399.095 44.3683Z" fill="url(#paint6_linear_13_121)"/>
<path d="M312.013 80.5732V80.8098V80.9281C312.147 80.8098 312.013 80.6915 312.013 80.5732Z" fill="url(#paint7_linear_13_121)"/>
<path d="M357.107 102.343C357.512 102.461 357.917 101.87 358.322 102.225C358.457 102.343 358.457 102.343 358.187 103.171C358.592 102.935 358.592 102.935 358.592 102.816C358.727 104.473 358.727 104.473 358.592 104.709C358.727 104.709 358.727 104.709 358.862 104.591C359.267 104.236 358.997 103.644 358.997 103.289C358.862 103.289 358.862 103.408 358.727 103.408C358.997 103.053 358.862 102.698 359.132 102.343C359.402 101.988 359.807 101.87 360.077 101.633C360.347 101.396 360.347 101.396 360.347 100.687C360.347 100.095 361.022 100.095 361.292 99.74C360.482 99.6217 357.242 102.106 357.107 102.343Z" fill="url(#paint8_linear_13_121)"/>
<path d="M351.166 69.5697C351.436 69.9247 351.571 70.2796 351.841 70.6346C352.111 70.9895 352.786 71.6994 353.326 71.4628C353.731 72.7643 352.651 73.8291 352.381 75.0123C352.246 75.7221 352.381 76.3137 353.056 76.787C353.326 76.9053 353.461 77.0236 353.731 77.2603C354.001 77.4969 354.001 77.9701 354.271 78.2068C354.541 78.4434 354.947 78.4434 355.352 78.9167C355.757 79.5082 356.702 80.0998 356.972 80.8097C357.377 80.8097 357.917 80.6914 358.457 80.5731C358.997 80.4548 359.132 79.9815 359.672 79.8632C360.212 79.6266 361.157 79.8632 361.832 79.7449C362.642 79.6266 363.317 79.5082 364.127 79.3899C364.937 79.2716 365.207 79.5082 365.747 79.9815C366.558 80.6914 366.693 81.1647 365.883 81.9929C365.477 82.4661 365.072 82.7028 365.072 83.4127C365.072 84.1226 365.612 84.1226 366.288 84.0042C366.963 83.8859 367.638 83.8859 368.178 83.8859C368.853 83.8859 369.528 83.531 370.068 83.176C371.148 82.4661 372.363 82.4661 373.443 81.6379C374.118 81.1647 374.388 80.6914 374.928 80.0998C375.468 79.5082 376.143 79.1533 376.818 78.5617C377.359 78.0885 378.034 77.7335 378.304 77.1419C378.709 76.432 379.114 75.7221 379.519 75.0123C379.924 74.3024 380.194 73.7108 379.924 72.8826C379.654 72.291 379.249 72.0544 378.709 71.6994C378.304 71.3445 378.034 70.6346 377.764 70.1613C377.223 69.4514 376.818 68.8598 376.548 68.0316C376.278 66.9668 376.278 65.7836 375.738 64.8371C375.333 64.0089 374.523 63.299 373.848 62.5891C373.443 62.2341 373.173 62.1158 372.633 61.8792C372.093 61.5242 371.553 61.2876 370.878 61.051C370.473 60.8144 369.933 60.3411 369.393 60.2228C368.853 60.1045 368.043 60.4594 367.503 60.5777C366.963 60.5777 366.423 60.5777 365.883 60.4594C365.612 60.3411 365.477 60.1045 365.207 60.1045C364.802 59.9861 364.262 60.1045 363.722 59.9861C362.912 59.8678 362.372 59.7495 361.562 59.7495C360.347 59.8678 359.537 60.1045 358.997 61.051C358.862 61.2876 358.862 61.4059 358.862 61.6426C358.727 61.8792 358.457 62.1158 358.322 62.3525C358.187 63.0624 358.727 64.0089 358.592 64.7188C358.457 65.192 357.917 65.6653 357.782 66.0202C357.647 66.4935 357.647 66.9668 357.377 67.44C357.242 67.795 356.837 68.3866 356.567 68.6232C355.487 69.4514 353.731 68.8598 352.786 68.1499C352.516 68.0316 352.381 67.6767 352.111 67.5584C351.841 67.44 351.571 67.44 351.436 67.3217C350.896 66.9668 351.031 66.4935 350.761 66.0202C349.546 66.6118 350.626 68.6232 351.166 69.2148C350.896 69.2148 351.031 69.4514 351.166 69.5697Z" fill="#69A0E1"/>
<path d="M366.288 96.7822C366.828 96.0723 366.963 95.2441 366.288 95.1258C366.017 95.1258 365.612 95.1258 365.477 95.3624C365.342 95.4807 365.072 95.954 364.937 96.1906C364.532 96.7822 364.397 97.0188 363.587 97.7287C362.507 98.6753 361.967 99.1485 361.427 99.9767C361.427 100.095 361.292 100.213 361.292 100.213C361.562 100.095 361.832 99.9767 361.967 99.7401C361.832 99.8584 361.832 100.095 361.697 100.213C361.967 100.332 361.967 100.332 362.372 100.213C363.317 99.6218 363.587 98.5569 364.532 97.8471C365.072 97.4921 365.748 97.1372 366.153 96.7822C366.288 96.9005 366.288 96.9005 366.288 96.7822Z" fill="url(#paint9_linear_13_121)"/>
<path d="M396.125 48.9826C396.935 48.6277 397.07 48.6277 397.745 48.746C397.745 48.8643 397.745 48.8643 397.61 48.9826C398.15 48.8643 398.15 48.8643 398.285 49.1009C398.42 48.8643 398.69 48.746 398.825 48.391C398.96 48.1544 398.69 48.0361 398.69 47.9178C398.555 47.7995 398.555 47.7995 397.61 47.4445C397.34 47.3262 396.935 47.3262 396.53 47.0896C395.855 46.7346 395.18 46.3797 394.505 46.143C394.37 46.0247 394.1 46.0247 393.965 46.0247C393.83 46.0247 391.13 47.0896 390.86 47.3262C390.59 47.4445 390.185 47.9178 390.32 48.5094C390.59 50.2841 395.315 49.3376 396.125 48.9826Z" fill="url(#paint10_linear_13_121)"/>
<path d="M396.395 97.1371C396.53 96.3089 396.8 96.3089 396.935 96.1906L397.07 96.3089C397.475 95.0075 397.34 95.0075 395.315 94.0609C395.45 94.0609 395.45 93.9426 395.585 93.9426C394.64 92.9961 393.02 93.4694 392.075 92.5228C391.535 92.0496 391.67 91.2214 390.995 90.7481L390.86 90.6298C390.725 90.6298 390.185 90.3931 389.645 91.8129C387.214 97.4921 387.214 97.4921 385.459 99.0302C383.974 100.332 383.974 100.332 381.679 98.7936C381.544 99.6218 381.139 100.332 381.139 101.16C380.059 100.568 381.274 99.6218 381.274 98.7936C380.869 99.0302 380.869 99.0302 380.734 100.095C380.464 99.7401 380.599 99.3851 380.599 99.0302L380.464 99.1485C379.519 98.9119 379.654 97.6104 378.574 97.6104C378.304 97.6104 378.304 97.6104 376.683 99.0302C376.548 98.7936 376.548 98.7936 376.818 98.6753H376.683C376.548 98.7936 376.548 98.7936 376.548 98.9119C376.278 98.7936 376.278 98.7936 376.008 98.4386C375.603 99.6218 374.523 100.332 373.983 101.397C373.443 102.58 373.038 103.763 372.498 104.946C372.498 105.064 372.363 105.183 372.363 105.301C371.013 107.667 371.013 108.259 371.013 109.442V109.324C371.013 109.324 371.013 109.442 371.013 109.56V109.679C371.013 109.797 371.148 110.152 371.688 110.507L373.848 111.69C374.523 112.045 375.333 111.572 376.008 112.045C376.143 112.163 376.278 112.4 376.278 112.637C377.629 112.163 378.979 111.69 380.329 111.217C380.464 111.098 380.464 111.098 380.599 110.98C380.734 110.862 381.139 110.743 381.679 110.625C385.864 108.85 389.645 106.484 393.02 103.763V103.645C393.02 103.645 393.02 103.526 392.885 103.526C393.02 103.526 393.02 103.526 393.155 103.526C393.425 103.408 393.56 103.171 393.83 103.053C394.1 102.343 393.965 101.633 394.37 100.923C396.26 97.2555 396.26 97.2555 396.395 97.1371Z" fill="#69A0E1"/>
<path d="M368.583 30.7622C368.583 30.7622 368.583 30.7622 369.258 31.2355C369.123 31.3538 369.123 31.4721 368.988 31.4721C369.123 31.5904 369.123 31.5904 369.528 31.9454C369.528 31.9454 369.663 31.9454 369.663 32.0637C369.393 33.1285 367.503 32.8919 367.638 34.1934C367.638 34.9033 368.313 35.2582 368.583 35.9681C368.853 36.678 368.853 37.3879 368.988 38.0978C369.393 39.5176 370.743 40.5824 370.878 42.0022C370.878 42.8304 369.798 43.6587 370.743 44.6052C372.498 46.3799 381.004 45.7883 382.624 44.6052C382.759 44.4869 382.894 44.2502 383.029 44.1319C383.029 43.8953 382.894 43.6586 382.894 43.5403C383.704 43.777 384.379 43.8953 385.189 43.8953C386.539 43.8953 386.134 42.0022 387.484 42.0022C388.024 42.0022 389.105 42.4755 389.51 42.5938C390.59 42.9488 391.67 43.422 392.21 43.1854C392.885 42.9488 392.48 42.1205 393.155 41.8839H393.29C392.75 41.2923 392.75 40.9374 393.02 40.7008C387.079 35.8498 379.519 32.3003 371.013 30.5256C369.123 30.1707 367.233 29.934 365.342 29.6974C366.423 30.0523 368.448 30.5256 369.123 30.6439C368.988 30.7622 368.718 30.7622 368.583 30.7622Z" fill="#69A0E1"/>
<path d="M374.928 95.5992C375.063 96.664 375.063 97.3739 374.928 97.4922C375.198 97.3739 375.468 97.2556 375.738 97.1373C375.873 97.019 376.413 96.7823 376.413 96.3091C376.413 95.7175 375.873 95.2442 375.603 94.6526C375.468 94.6526 374.793 95.2442 374.928 95.5992Z" fill="url(#paint11_linear_13_121)"/>
<path d="M376.008 112.755C376.008 112.519 376.008 112.282 375.738 112.164C375.063 111.69 374.253 112.164 373.578 111.809L371.418 110.626C370.878 110.271 370.743 109.916 370.743 109.797V109.679C370.743 109.679 370.743 109.561 370.743 109.442V109.561C370.743 108.378 370.743 107.904 372.093 105.42C372.093 105.301 372.228 105.183 372.228 105.065C372.903 103.882 373.173 102.698 373.713 101.515C374.253 100.45 375.333 99.6221 375.738 98.5573C376.143 98.9122 376.143 98.9122 376.278 99.0306C376.278 98.9122 376.413 98.9122 376.413 98.7939H376.548C376.413 98.9122 376.278 98.9122 376.413 99.1489C378.034 97.7291 378.034 97.7291 378.304 97.7291C379.384 97.7291 379.249 99.0306 380.194 99.2672L380.329 99.1489C380.464 99.5038 380.194 99.8588 380.464 100.214C380.599 99.2672 380.599 99.2672 381.004 98.9122C381.139 99.7404 379.924 100.569 380.869 101.279C380.869 100.45 381.409 99.7404 381.409 98.9122C383.704 100.45 383.704 100.45 385.189 99.1489C387.079 97.4925 387.079 97.4925 389.375 91.9316C389.915 90.5118 390.455 90.7485 390.59 90.7485C390.59 90.7485 390.725 90.7485 390.725 90.8668C391.4 91.34 391.265 92.0499 391.805 92.6415C392.75 93.588 394.37 93.1148 395.315 94.0613C395.18 94.0613 395.045 94.1796 395.045 94.1796C397.07 95.1261 397.205 95.2444 396.8 96.4276L396.665 96.3093C396.53 96.3093 396.395 96.4276 396.125 97.2558C396.125 97.4925 396.125 97.4924 394.1 101.16C393.695 101.87 393.83 102.58 393.56 103.29C400.176 97.7291 405.036 90.5118 407.196 82.1114C411.247 66.612 405.171 50.9943 392.75 40.9375C392.48 41.1741 392.48 41.4108 393.02 42.1207H392.885C392.21 42.3573 392.615 43.1855 391.94 43.4221C391.4 43.6588 390.32 43.1855 389.24 42.8306C388.835 42.7122 387.754 42.239 387.214 42.239C385.729 42.239 386.269 44.0137 384.919 44.132C384.109 44.132 383.434 44.0137 382.624 43.7771C382.624 44.0137 382.759 44.2503 382.759 44.3687C382.624 44.487 382.489 44.7236 382.354 44.8419C380.734 46.0251 372.228 46.4983 370.473 44.8419C369.528 43.8954 370.743 43.1855 370.608 42.239C370.473 40.7009 369.123 39.636 368.718 38.3346C368.448 37.6247 368.583 36.9148 368.313 36.2049C368.043 35.6133 367.368 35.14 367.368 34.4301C367.233 33.1287 369.258 33.3653 369.393 32.3005C369.393 32.1821 369.258 32.1821 369.258 32.1821C368.853 31.9455 368.853 31.9455 368.718 31.7089C368.853 31.5906 368.988 31.4722 368.988 31.4722C368.313 30.999 368.313 30.999 368.313 30.999C368.448 30.999 368.718 30.999 368.853 30.999C368.043 30.8807 366.153 30.4074 365.072 30.0525C340.77 27.6861 317.818 41.5291 312.148 62.8259C310.528 68.86 310.528 75.0125 311.743 80.6916C310.933 75.4857 311.068 70.1615 312.283 64.719C312.958 61.6428 314.038 58.5666 315.523 55.8453C315.793 55.2537 315.928 55.1354 316.063 54.8988C316.063 55.0171 316.063 55.0171 315.928 55.1354C315.928 55.1354 316.063 55.0171 316.063 54.8988C316.063 55.0171 315.928 55.1354 315.928 55.2537C316.333 54.4255 316.333 54.4255 316.603 54.1889C316.603 54.3072 316.603 54.4255 316.603 54.5438C317.008 52.8874 318.628 50.876 318.628 50.876C319.438 49.9295 319.438 49.9295 319.843 49.3379C320.248 48.7463 322.409 45.9068 325.244 44.3687L325.784 44.2503C325.784 44.2503 325.784 44.2503 325.784 44.3687C325.784 44.3687 325.109 45.4335 325.379 46.2617C325.379 47.0899 325.379 47.0899 324.839 47.7998C324.839 47.7998 324.839 47.7998 324.974 47.7998C324.974 47.7998 327.134 49.6929 327.269 50.9943C327.269 50.9943 326.999 52.7691 326.459 53.2423C326.459 53.2423 326.189 54.3072 325.919 56.6735C326.999 56.5552 327.269 56.7918 327.539 56.9101C327.944 57.1468 330.509 61.5245 330.509 61.6428C330.509 61.8794 330.239 63.4175 328.889 63.8908C329.429 63.7725 329.969 63.5358 330.644 63.2992C332.265 62.8259 333.615 64.1274 332.13 66.3754C333.48 66.1388 333.48 66.2571 333.48 67.5586C333.615 67.5586 333.615 67.5586 334.965 67.3219C335.235 67.0853 335.37 67.0853 335.64 67.2036C335.235 67.5586 335.235 67.5586 335.235 67.6769L335.37 67.7952C335.505 67.6769 335.505 67.5586 335.64 67.4402C335.775 67.4402 335.91 67.5586 336.045 67.5586C336.855 67.7952 337.125 68.7417 337.935 68.86C338.61 68.9783 338.88 68.3868 339.42 68.2684C339.555 68.2684 339.825 68.2684 339.96 68.2684C340.095 68.2684 340.23 68.3868 340.23 68.3868C341.04 68.6234 341.445 69.215 342.255 69.4516C342.795 69.6882 343.471 69.3333 344.011 69.5699C344.011 69.5699 344.011 69.6882 344.011 69.8066C344.686 69.215 345.766 69.5699 346.576 68.9783C346.711 69.215 346.711 69.5699 346.846 69.8066C346.981 69.8066 347.116 69.8066 347.251 69.8066C347.116 69.8066 346.981 69.9249 346.846 70.0432C346.846 70.0432 346.846 70.1615 346.846 70.2798C346.711 70.2798 346.441 70.2798 346.306 70.2798C346.306 70.3981 346.171 70.5165 346.036 70.5165C346.036 70.5165 346.036 70.6348 346.036 70.7531C346.036 70.7531 345.901 70.7531 345.766 70.7531C345.766 70.7531 345.766 70.6348 345.631 70.5165C345.496 70.7531 345.226 70.8714 345.091 71.108C344.956 71.108 344.686 71.108 344.551 71.108L344.416 70.9897C344.146 71.108 344.011 71.3447 343.606 71.3447C343.741 71.2263 343.876 70.9897 343.876 71.108C343.741 71.108 343.741 71.108 343.606 71.108V71.2263C342.795 71.3447 342.795 71.3447 342.795 71.3447C342.93 71.2263 343.065 71.108 343.2 71.108C342.255 71.3447 342.255 71.3447 342.12 71.463C341.445 71.5813 340.77 71.463 340.095 71.463C340.095 71.463 340.23 71.463 340.23 71.5813C340.77 71.6996 341.04 71.6996 341.31 71.6996C341.04 71.8179 340.905 71.8179 340.095 71.9362H339.825C339.69 72.0546 339.555 72.0546 339.555 72.0546C339.42 72.0546 339.42 72.0546 339.015 72.1729C339.15 71.8179 339.15 71.8179 339.69 71.6996C339.285 71.6996 338.745 71.6996 338.34 71.8179C338.34 71.8179 338.205 71.8179 338.205 71.6996C338.07 71.9362 337.665 71.9362 337.53 72.1729C336.99 72.1729 336.99 72.1729 336.72 72.0546C336.72 72.0546 336.855 72.0546 336.855 71.9362L336.72 71.8179C336.045 71.9362 336.045 71.9362 335.775 72.1729C335.775 72.1729 335.775 72.0546 335.64 72.0546C335.505 72.0546 335.37 71.9362 335.235 72.0546C335.64 71.9362 336.045 71.9362 336.315 71.6996C336.18 71.6996 336.18 71.6996 335.505 71.6996L335.64 71.5813C335.235 71.5813 334.02 71.6996 333.21 71.9362C333.615 71.9362 333.885 72.0546 334.29 72.0546C334.425 72.1729 334.425 72.2912 334.425 72.4095C333.48 72.6461 333.345 72.5278 333.075 72.2912C332.535 72.7645 328.754 73.0011 328.754 73.0011C327.539 73.0011 326.324 72.5278 325.109 72.4095C323.894 72.4095 322.544 72.6461 321.329 72.7644C320.924 72.7644 320.518 72.7644 320.113 72.7644C316.333 72.4095 315.523 74.4209 313.768 80.5733C313.363 81.9931 313.363 81.9931 312.283 83.0579C312.283 83.1762 312.418 83.4129 312.418 83.5312C311.878 83.0579 311.743 82.4663 311.608 81.7564C315.388 97.6108 329.159 110.862 348.331 114.767C358.187 115.95 367.638 115.358 376.008 112.755ZM390.725 47.2082C390.995 46.9716 393.83 45.9068 393.83 45.9068C393.965 45.9068 394.235 45.9068 394.37 46.0251C395.045 46.2617 395.72 46.735 396.395 46.9716C396.665 47.0899 397.07 47.2082 397.475 47.3266C398.285 47.6815 398.285 47.6815 398.555 47.7998C398.69 47.9181 398.825 48.0365 398.69 48.2731C398.555 48.5097 398.285 48.7463 398.15 48.983C398.015 48.8647 398.015 48.8647 397.475 48.8647C397.475 48.7463 397.475 48.7463 397.61 48.628C397.07 48.5097 396.935 48.5097 395.99 48.8647C395.18 49.2196 390.455 50.1661 389.915 48.2731C389.915 47.7998 390.455 47.3266 390.725 47.2082ZM375.603 97.2558C375.333 97.3741 375.063 97.4924 374.793 97.6108C374.928 97.4924 374.928 96.7826 374.793 95.7177C374.793 95.3628 375.468 94.8895 375.468 94.8895C375.738 95.4811 376.278 95.9543 376.278 96.5459C376.278 96.9009 375.873 97.1375 375.603 97.2558ZM350.221 65.7838C350.491 66.1388 350.356 66.7303 350.896 67.0853C351.031 67.2036 351.301 67.2036 351.571 67.3219C351.841 67.4402 352.111 67.7952 352.246 67.9135C353.191 68.6234 354.947 69.215 356.027 68.3868C356.297 68.1501 356.567 67.5586 356.837 67.2036C357.107 66.7303 357.107 66.2571 357.242 65.7838C357.377 65.4289 357.917 64.8373 358.052 64.4823C358.187 63.7725 357.647 62.8259 357.782 62.116C357.782 61.8794 358.187 61.6428 358.322 61.4061C358.457 61.1695 358.457 61.0512 358.457 60.8146C358.997 59.868 359.807 59.6314 361.022 59.5131C361.832 59.5131 362.372 59.6314 363.182 59.7497C363.722 59.7497 364.262 59.7497 364.667 59.868C364.937 59.9863 365.072 60.1047 365.342 60.223C365.883 60.4596 366.288 60.3413 366.963 60.3413C367.503 60.3413 368.313 59.9863 368.853 59.9863C369.393 60.1047 369.798 60.5779 370.338 60.8146C371.013 61.0512 371.418 61.4061 372.093 61.6428C372.633 61.8794 372.903 61.9977 373.308 62.3527C373.983 62.9442 374.793 63.7725 375.198 64.6007C375.738 65.6655 375.738 66.7303 376.008 67.7952C376.143 68.6234 376.683 69.215 377.224 69.9249C377.494 70.3981 377.764 70.9897 378.169 71.463C378.709 71.9362 379.114 72.0546 379.384 72.6461C379.654 73.4743 379.384 74.0659 378.979 74.7758C378.574 75.4857 378.169 76.3139 377.764 76.9055C377.494 77.4971 376.683 77.852 376.278 78.3253C375.603 78.7986 374.928 79.1535 374.388 79.8634C373.848 80.455 373.578 80.9282 372.903 81.4015C371.823 82.2297 370.608 82.2297 369.528 82.9396C368.988 83.2946 368.313 83.6495 367.638 83.6495C367.098 83.6495 366.423 83.6495 365.747 83.7678C365.072 83.8861 364.667 84.0045 364.532 83.1762C364.532 82.5847 364.937 82.2297 365.342 81.7564C366.018 80.9282 366.018 80.455 365.207 79.7451C364.667 79.2718 364.397 79.0352 363.587 79.1535C362.777 79.2718 362.102 79.3901 361.292 79.5085C360.617 79.6268 359.672 79.3901 359.132 79.6268C358.592 79.8634 358.592 80.2183 357.917 80.3367C357.512 80.455 356.972 80.5733 356.432 80.5733C356.162 79.8634 355.352 79.1535 354.812 78.6802C354.541 78.3253 354.136 78.3253 353.731 77.9703C353.461 77.7337 353.461 77.3788 353.191 77.0238C353.056 76.7872 352.786 76.7872 352.516 76.5506C351.976 76.0773 351.706 75.4857 351.841 74.7758C352.111 73.5927 353.191 72.5278 352.786 71.2263C352.246 71.3447 351.571 70.7531 351.301 70.3981C351.031 70.0432 350.896 69.6882 350.626 69.3333C350.491 69.0967 350.221 68.9783 350.086 68.7417C350.221 68.3868 349.006 66.3754 350.221 65.7838ZM360.347 100.687C360.347 101.515 360.347 101.515 360.077 101.634C359.807 101.87 359.402 101.988 359.132 102.343C358.862 102.698 358.997 103.053 358.727 103.408C358.862 103.527 358.862 103.29 358.997 103.29C358.862 103.763 359.267 104.236 358.862 104.591C358.727 104.591 358.727 104.591 358.592 104.71C358.727 104.473 358.727 104.473 358.592 102.817C358.592 102.935 358.592 102.935 358.187 103.172C358.457 102.225 358.457 102.225 358.322 102.225C357.917 101.87 357.512 102.462 357.107 102.343C357.242 102.107 360.482 99.6221 361.157 99.7405C360.887 100.095 360.347 100.095 360.347 100.687ZM362.372 100.45C361.967 100.569 361.967 100.569 361.697 100.45C361.832 100.332 361.832 100.095 361.967 99.9771C361.697 100.095 361.427 100.214 361.292 100.45C361.292 100.332 361.427 100.214 361.427 100.214C361.967 99.3855 362.507 98.9122 363.587 97.9657C364.397 97.2558 364.667 97.0192 364.937 96.4276C365.072 96.191 365.342 95.7177 365.477 95.5994C365.613 95.3628 366.018 95.3628 366.288 95.3628C366.963 95.4811 366.828 96.3093 366.288 97.0192L366.153 97.1375C365.613 97.6108 365.072 97.8474 364.532 98.2023C363.722 98.7939 363.452 99.8588 362.372 100.45Z" fill="url(#paint12_linear_13_121)"/>
<path d="M346.981 69.5699C346.846 69.3333 346.846 68.9784 346.711 68.7417C345.901 69.215 344.821 68.9784 344.146 69.5699C344.146 69.5699 344.146 69.4516 344.146 69.3333C343.606 69.0967 342.93 69.3333 342.39 69.215C341.58 68.9783 341.175 68.3868 340.365 68.1501C340.23 68.1501 340.095 68.0318 340.095 68.0318C339.96 68.0318 339.69 68.0318 339.555 68.0318C339.015 68.1501 338.745 68.7417 338.07 68.6234C337.26 68.3868 336.99 67.5586 336.18 67.3219C336.045 67.3219 335.91 67.2036 335.775 67.2036C335.775 67.3219 335.64 67.4402 335.505 67.5586L335.37 67.4402C335.37 67.4402 335.37 67.4402 335.775 66.967C335.64 66.967 335.505 66.8487 335.1 67.0853C333.75 67.3219 333.75 67.3219 333.615 67.3219C333.615 66.0205 333.615 65.9021 332.265 66.1388C333.615 64.0091 332.4 62.7076 330.779 63.0626C330.239 63.1809 329.699 63.5358 329.024 63.6541C330.374 63.1809 330.644 61.6428 330.644 61.4061C330.644 61.4061 328.079 56.9101 327.674 56.6735C327.539 56.5552 327.134 56.4369 326.054 56.4369C326.189 54.0706 326.594 53.0057 326.594 53.0057C327.134 52.5325 327.404 50.7577 327.404 50.7577C327.269 49.5746 325.109 47.6815 325.109 47.5632C324.974 47.5632 324.974 47.5632 324.974 47.5632C325.514 46.9716 325.514 46.9716 325.514 46.0251C325.379 45.6701 325.514 45.3152 325.649 44.9602L326.054 44.0137C326.054 44.0137 326.594 41.5291 325.784 41.6474C323.894 43.3038 307.557 56.6735 311.743 77.9703C311.878 78.7986 311.878 79.6268 312.013 80.455C312.013 80.5733 312.013 80.6916 312.148 80.8099C312.283 81.5198 312.553 82.1114 312.958 82.5847C312.958 82.4663 312.958 82.2297 312.823 82.1114C313.903 81.0466 313.903 81.0466 314.308 79.6268C316.198 73.5927 317.008 71.463 320.653 71.8179C321.059 71.8179 321.464 71.8179 321.869 71.8179C323.084 71.8179 324.299 71.463 325.649 71.463C326.864 71.463 328.079 72.0546 329.294 72.0546C329.294 72.0546 333.075 71.8179 333.615 71.3447C333.885 71.5813 334.02 71.6996 334.965 71.463C334.965 71.3447 334.83 71.2264 334.83 71.108C334.425 71.108 334.155 70.9897 333.75 70.9897C334.56 70.7531 335.775 70.6348 336.18 70.6348L336.045 70.7531C336.72 70.7531 336.72 70.7531 336.855 70.7531C336.585 70.9897 336.18 70.9897 335.775 71.108C335.91 71.108 336.045 71.108 336.18 71.108C336.18 71.108 336.18 71.2263 336.315 71.2263C336.45 70.9897 336.45 70.9897 337.26 70.8714L337.395 70.9897C337.395 70.9897 337.26 70.9897 337.26 71.108C337.53 71.2264 337.53 71.2263 338.07 71.2263C338.205 70.9897 338.61 70.8714 338.745 70.7531C338.745 70.7531 338.88 70.7531 338.88 70.8714C339.285 70.7531 339.825 70.8714 340.23 70.7531C339.69 70.8714 339.69 70.8714 339.555 71.2263C339.96 71.108 339.96 71.108 340.095 71.108C340.23 71.108 340.365 71.108 340.365 70.9897H340.635C341.445 70.8714 341.445 70.8714 341.85 70.7531C341.58 70.7531 341.31 70.7531 340.77 70.6348C340.77 70.6348 340.635 70.6348 340.635 70.5165C341.31 70.5165 341.985 70.6348 342.66 70.5165C342.795 70.5165 342.795 70.5165 343.741 70.1615C343.606 70.2798 343.471 70.3981 343.335 70.3981C343.335 70.3981 343.335 70.3981 344.146 70.2798V70.1615C344.281 70.1615 344.281 70.1615 344.416 70.1615C344.416 70.1615 344.281 70.2798 344.146 70.3981C344.416 70.2798 344.686 70.1615 344.956 70.0432L345.091 70.1615C345.226 70.1615 345.496 70.1615 345.631 70.1615C345.766 69.9249 346.036 69.8066 346.171 69.5699C346.171 69.5699 346.171 69.6882 346.306 69.8066C346.306 69.8066 346.441 69.8066 346.576 69.8066C346.576 69.8066 346.576 69.6882 346.576 69.5699C346.711 69.5699 346.846 69.4516 346.846 69.3333C346.981 69.3333 347.251 69.3333 347.386 69.3333C347.386 69.3333 347.386 69.215 347.386 69.0967C347.521 69.0967 347.656 68.9783 347.791 68.86C347.251 69.5699 347.116 69.5699 346.981 69.5699ZM345.091 70.5165C345.091 70.1615 345.091 70.1615 344.956 70.0432C344.821 69.9249 344.551 69.9249 344.416 70.0432V69.9249C344.551 70.0432 344.956 70.1615 345.091 69.9249C345.091 69.8066 345.091 69.8066 345.226 69.8066C345.496 70.0432 345.496 70.0432 345.631 70.0432C345.496 70.0432 345.496 70.1615 345.631 70.2798C345.901 70.2798 345.901 70.2798 346.036 70.2798C345.496 70.0432 345.226 70.1615 345.091 70.5165Z" fill="#69A0E1"/>
</g>
<path d="M261.383 162.093C253.148 168.482 248.827 210.602 251.392 230.479C253.958 250.356 254.093 251.658 254.093 251.658L275.694 253.906L277.18 203.03" fill="#F7BF74"/>
<path d="M270.969 251.539C270.294 251.539 269.889 251.066 269.889 250.593C269.889 250.356 272.049 228.941 272.184 225.155C272.319 222.197 267.999 202.083 265.704 191.79C265.569 191.317 265.974 190.843 266.514 190.725C267.054 190.607 267.594 190.962 267.729 191.435C267.999 192.618 274.344 221.369 274.209 225.155C274.074 228.941 272.049 249.765 271.914 250.711C272.049 251.184 271.509 251.539 270.969 251.539Z" fill="#EAAE68"/>
<path d="M333.75 247.99C214.534 247.99 117.325 221.842 112.6 189.187H112.33V317.678C112.33 351.516 211.834 379.084 333.75 379.084C455.665 379.084 554.629 351.635 554.629 317.678V190.843C546.799 222.789 450.94 247.99 333.75 247.99Z" fill="#B90F0F" fill-opacity="0.68"/>
<path d="M522.496 182.561H422.318C419.482 182.561 417.322 180.55 417.322 178.184V117.132C417.322 114.648 419.617 112.755 422.318 112.755H522.496C525.332 112.755 527.492 114.766 527.492 117.132V178.184C527.492 180.55 525.332 182.561 522.496 182.561Z" fill="url(#paint13_linear_13_121)"/>
<g filter="url(#filter6_i_13_121)">
<path d="M434.604 134.643H426.773V173.688H434.604V134.643Z" fill="url(#paint14_linear_13_121)"/>
</g>
<g filter="url(#filter7_i_13_121)">
<path d="M450.805 122.457H442.974V173.806H450.805V122.457Z" fill="url(#paint15_linear_13_121)"/>
</g>
<g filter="url(#filter8_i_13_121)">
<path d="M467.142 140.677H459.311V173.688H467.142V140.677Z" fill="url(#paint16_linear_13_121)"/>
</g>
<g filter="url(#filter9_i_13_121)">
<path d="M483.343 133.342H475.512V173.806H483.343V133.342Z" fill="url(#paint17_linear_13_121)"/>
</g>
<g filter="url(#filter10_i_13_121)">
<path d="M499.544 128.373H491.714V173.688H499.544V128.373Z" fill="url(#paint18_linear_13_121)"/>
</g>
<g filter="url(#filter11_i_13_121)">
<path d="M515.746 133.342H507.915V173.806H515.746V133.342Z" fill="url(#paint19_linear_13_121)"/>
</g>
<path d="M140.953 398.843H123.266V436.112H140.953V398.843Z" fill="#69A0E1"/>
<path d="M118.676 400.026L132.177 386.301L146.488 400.026H118.676Z" fill="#69A0E1"/>
<path d="M153.422 423.588H171.109V386.319H153.422V423.588Z" fill="#5D8BC1"/>
<path d="M175.651 422.387L162.284 436.112L147.838 422.387H175.651Z" fill="#5D8BC1"/>
</g>
<defs>
<filter id="filter0_i_13_121" x="0" y="0" width="563" height="566" filterUnits="userSpaceOnUse" color-interpolation-filters="sRGB">
<feFlood flood-opacity="0" result="BackgroundImageFix"/>
<feBlend mode="normal" in="SourceGraphic" in2="BackgroundImageFix" result="shape"/>
<feColorMatrix in="SourceAlpha" type="matrix" values="0 0 0 0 0 0 0 0 0 0 0 0 0 0 0 0 0 0 127 0" result="hardAlpha"/>
<feOffset dy="4"/>
<feGaussianBlur stdDeviation="2"/>
<feComposite in2="hardAlpha" operator="arithmetic" k2="-1" k3="1"/>
<feColorMatrix type="matrix" values="0 0 0 0 0 0 0 0 0 0 0 0 0 0 0 0 0 0 0.25 0"/>
<feBlend mode="normal" in2="shape" result="effect1_innerShadow_13_121"/>
</filter>
<filter id="filter1_b_13_121" x="278.221" y="92.618" width="54.2745" height="55.5986" filterUnits="userSpaceOnUse" color-interpolation-filters="sRGB">
<feFlood flood-opacity="0" result="BackgroundImageFix"/>
<feGaussianBlur in="BackgroundImageFix" stdDeviation="2"/>
<feComposite in2="SourceAlpha" operator="in" result="effect1_backgroundBlur_13_121"/>
<feBlend mode="normal" in="SourceGraphic" in2="effect1_backgroundBlur_13_121" result="shape"/>
</filter>
<filter id="filter2_b_13_121" x="287.732" y="98.472" width="39.4333" height="46.2061" filterUnits="userSpaceOnUse" color-interpolation-filters="sRGB">
<feFlood flood-opacity="0" result="BackgroundImageFix"/>
<feGaussianBlur in="BackgroundImageFix" stdDeviation="2"/>
<feComposite in2="SourceAlpha" operator="in" result="effect1_backgroundBlur_13_121"/>
<feBlend mode="normal" in="SourceGraphic" in2="effect1_backgroundBlur_13_121" result="shape"/>
</filter>
<filter id="filter3_b_13_121" x="342.643" y="90.652" width="40.2006" height="42.7855" filterUnits="userSpaceOnUse" color-interpolation-filters="sRGB">
<feFlood flood-opacity="0" result="BackgroundImageFix"/>
<feGaussianBlur in="BackgroundImageFix" stdDeviation="2"/>
<feComposite in2="SourceAlpha" operator="in" result="effect1_backgroundBlur_13_121"/>
<feBlend mode="normal" in="SourceGraphic" in2="effect1_backgroundBlur_13_121" result="shape"/>
</filter>
<filter id="filter4_b_13_121" x="322.498" y="119.758" width="72.7028" height="158.261" filterUnits="userSpaceOnUse" color-interpolation-filters="sRGB">
<feFlood flood-opacity="0" result="BackgroundImageFix"/>
<feGaussianBlur in="BackgroundImageFix" stdDeviation="2"/>
<feComposite in2="SourceAlpha" operator="in" result="effect1_backgroundBlur_13_121"/>
<feBlend mode="normal" in="SourceGraphic" in2="effect1_backgroundBlur_13_121" result="shape"/>
</filter>
<filter id="filter5_b_13_121" x="306.877" y="25.6974" width="105.567" height="93.6523" filterUnits="userSpaceOnUse" color-interpolation-filters="sRGB">
<feFlood flood-opacity="0" result="BackgroundImageFix"/>
<feGaussianBlur in="BackgroundImageFix" stdDeviation="2"/>
<feComposite in2="SourceAlpha" operator="in" result="effect1_backgroundBlur_13_121"/>
<feBlend mode="normal" in="SourceGraphic" in2="effect1_backgroundBlur_13_121" result="shape"/>
</filter>
<filter id="filter6_i_13_121" x="426.773" y="134.643" width="7.83067" height="43.0442" filterUnits="userSpaceOnUse" color-interpolation-filters="sRGB">
<feFlood flood-opacity="0" result="BackgroundImageFix"/>
<feBlend mode="normal" in="SourceGraphic" in2="BackgroundImageFix" result="shape"/>
<feColorMatrix in="SourceAlpha" type="matrix" values="0 0 0 0 0 0 0 0 0 0 0 0 0 0 0 0 0 0 127 0" result="hardAlpha"/>
<feOffset dy="4"/>
<feGaussianBlur stdDeviation="2"/>
<feComposite in2="hardAlpha" operator="arithmetic" k2="-1" k3="1"/>
<feColorMatrix type="matrix" values="0 0 0 0 0 0 0 0 0 0 0 0 0 0 0 0 0 0 0.25 0"/>
<feBlend mode="normal" in2="shape" result="effect1_innerShadow_13_121"/>
</filter>
<filter id="filter7_i_13_121" x="442.974" y="122.457" width="7.83067" height="55.3491" filterUnits="userSpaceOnUse" color-interpolation-filters="sRGB">
<feFlood flood-opacity="0" result="BackgroundImageFix"/>
<feBlend mode="normal" in="SourceGraphic" in2="BackgroundImageFix" result="shape"/>
<feColorMatrix in="SourceAlpha" type="matrix" values="0 0 0 0 0 0 0 0 0 0 0 0 0 0 0 0 0 0 127 0" result="hardAlpha"/>
<feOffset dy="4"/>
<feGaussianBlur stdDeviation="2"/>
<feComposite in2="hardAlpha" operator="arithmetic" k2="-1" k3="1"/>
<feColorMatrix type="matrix" values="0 0 0 0 0 0 0 0 0 0 0 0 0 0 0 0 0 0 0.25 0"/>
<feBlend mode="normal" in2="shape" result="effect1_innerShadow_13_121"/>
</filter>
<filter id="filter8_i_13_121" x="459.311" y="140.677" width="7.83068" height="37.0101" filterUnits="userSpaceOnUse" color-interpolation-filters="sRGB">
<feFlood flood-opacity="0" result="BackgroundImageFix"/>
<feBlend mode="normal" in="SourceGraphic" in2="BackgroundImageFix" result="shape"/>
<feColorMatrix in="SourceAlpha" type="matrix" values="0 0 0 0 0 0 0 0 0 0 0 0 0 0 0 0 0 0 127 0" result="hardAlpha"/>
<feOffset dy="4"/>
<feGaussianBlur stdDeviation="2"/>
<feComposite in2="hardAlpha" operator="arithmetic" k2="-1" k3="1"/>
<feColorMatrix type="matrix" values="0 0 0 0 0 0 0 0 0 0 0 0 0 0 0 0 0 0 0.25 0"/>
<feBlend mode="normal" in2="shape" result="effect1_innerShadow_13_121"/>
</filter>
<filter id="filter9_i_13_121" x="475.512" y="133.342" width="7.83068" height="44.464" filterUnits="userSpaceOnUse" color-interpolation-filters="sRGB">
<feFlood flood-opacity="0" result="BackgroundImageFix"/>
<feBlend mode="normal" in="SourceGraphic" in2="BackgroundImageFix" result="shape"/>
<feColorMatrix in="SourceAlpha" type="matrix" values="0 0 0 0 0 0 0 0 0 0 0 0 0 0 0 0 0 0 127 0" result="hardAlpha"/>
<feOffset dy="4"/>
<feGaussianBlur stdDeviation="2"/>
<feComposite in2="hardAlpha" operator="arithmetic" k2="-1" k3="1"/>
<feColorMatrix type="matrix" values="0 0 0 0 0 0 0 0 0 0 0 0 0 0 0 0 0 0 0.25 0"/>
<feBlend mode="normal" in2="shape" result="effect1_innerShadow_13_121"/>
</filter>
<filter id="filter10_i_13_121" x="491.714" y="128.373" width="7.83068" height="49.3149" filterUnits="userSpaceOnUse" color-interpolation-filters="sRGB">
<feFlood flood-opacity="0" result="BackgroundImageFix"/>
<feBlend mode="normal" in="SourceGraphic" in2="BackgroundImageFix" result="shape"/>
<feColorMatrix in="SourceAlpha" type="matrix" values="0 0 0 0 0 0 0 0 0 0 0 0 0 0 0 0 0 0 127 0" result="hardAlpha"/>
<feOffset dy="4"/>
<feGaussianBlur stdDeviation="2"/>
<feComposite in2="hardAlpha" operator="arithmetic" k2="-1" k3="1"/>
<feColorMatrix type="matrix" values="0 0 0 0 0 0 0 0 0 0 0 0 0 0 0 0 0 0 0.25 0"/>
<feBlend mode="normal" in2="shape" result="effect1_innerShadow_13_121"/>
</filter>
<filter id="filter11_i_13_121" x="507.915" y="133.342" width="7.83068" height="44.464" filterUnits="userSpaceOnUse" color-interpolation-filters="sRGB">
<feFlood flood-opacity="0" result="BackgroundImageFix"/>
<feBlend mode="normal" in="SourceGraphic" in2="BackgroundImageFix" result="shape"/>
<feColorMatrix in="SourceAlpha" type="matrix" values="0 0 0 0 0 0 0 0 0 0 0 0 0 0 0 0 0 0 127 0" result="hardAlpha"/>
<feOffset dy="4"/>
<feGaussianBlur stdDeviation="2"/>
<feComposite in2="hardAlpha" operator="arithmetic" k2="-1" k3="1"/>
<feColorMatrix type="matrix" values="0 0 0 0 0 0 0 0 0 0 0 0 0 0 0 0 0 0 0.25 0"/>
<feBlend mode="normal" in2="shape" result="effect1_innerShadow_13_121"/>
</filter>
<linearGradient id="paint0_linear_13_121" x1="309.969" y1="481.249" x2="309.969" y2="173.643" gradientUnits="userSpaceOnUse">
<stop stop-color="white"/>
<stop offset="0.4798" stop-color="#F8FBFD" stop-opacity="0.5202"/>
<stop offset="1" stop-color="#EBF4FA" stop-opacity="0"/>
</linearGradient>
<linearGradient id="paint1_linear_13_121" x1="112.173" y1="187.992" x2="207.692" y2="187.992" gradientUnits="userSpaceOnUse">
<stop stop-color="#9BC3EA"/>
<stop offset="0.1927" stop-color="#A2C7EB"/>
<stop offset="0.464" stop-color="#B4D2EF"/>
<stop offset="0.7805" stop-color="#D2E5F5"/>
<stop offset="1" stop-color="#EBF4FA"/>
</linearGradient>
<linearGradient id="paint2_linear_13_121" x1="507.239" y1="189.067" x2="374.626" y2="186.864" gradientUnits="userSpaceOnUse">
<stop stop-color="#9BC3EA"/>
<stop offset="0.0663081" stop-color="#9CC4EA"/>
<stop offset="0.249" stop-color="#A4C9EC"/>
<stop offset="0.5283" stop-color="#B9D6F0"/>
<stop offset="0.8679" stop-color="#DCEBF7"/>
<stop offset="1" stop-color="#EBF4FA"/>
</linearGradient>
<linearGradient id="paint3_linear_13_121" x1="392.832" y1="103.769" x2="393.141" y2="103.769" gradientUnits="userSpaceOnUse">
<stop stop-color="#9BC3EA"/>
<stop offset="0.1927" stop-color="#A2C7EB"/>
<stop offset="0.464" stop-color="#B4D2EF"/>
<stop offset="0.7805" stop-color="#D2E5F5"/>
<stop offset="1" stop-color="#EBF4FA"/>
</linearGradient>
<linearGradient id="paint4_linear_13_121" x1="344.317" y1="70.0409" x2="345.848" y2="70.0409" gradientUnits="userSpaceOnUse">
<stop stop-color="#9BC3EA"/>
<stop offset="0.1927" stop-color="#A2C7EB"/>
<stop offset="0.464" stop-color="#B4D2EF"/>
<stop offset="0.7805" stop-color="#D2E5F5"/>
<stop offset="1" stop-color="#EBF4FA"/>
</linearGradient>
<linearGradient id="paint5_linear_13_121" x1="380.106" y1="110.992" x2="381.455" y2="110.992" gradientUnits="userSpaceOnUse">
<stop stop-color="#9BC3EA"/>
<stop offset="0.1927" stop-color="#A2C7EB"/>
<stop offset="0.464" stop-color="#B4D2EF"/>
<stop offset="0.7805" stop-color="#D2E5F5"/>
<stop offset="1" stop-color="#EBF4FA"/>
</linearGradient>
<linearGradient id="paint6_linear_13_121" x1="398.338" y1="44.0357" x2="399.306" y2="44.0357" gradientUnits="userSpaceOnUse">
<stop stop-color="#9BC3EA"/>
<stop offset="0.1927" stop-color="#A2C7EB"/>
<stop offset="0.464" stop-color="#B4D2EF"/>
<stop offset="0.7805" stop-color="#D2E5F5"/>
<stop offset="1" stop-color="#EBF4FA"/>
</linearGradient>
<linearGradient id="paint7_linear_13_121" x1="312.034" y1="80.7766" x2="312.123" y2="80.7766" gradientUnits="userSpaceOnUse">
<stop stop-color="#9BC3EA"/>
<stop offset="0.1927" stop-color="#A2C7EB"/>
<stop offset="0.464" stop-color="#B4D2EF"/>
<stop offset="0.7805" stop-color="#D2E5F5"/>
<stop offset="1" stop-color="#EBF4FA"/>
</linearGradient>
<linearGradient id="paint8_linear_13_121" x1="357.112" y1="102.246" x2="361.223" y2="102.246" gradientUnits="userSpaceOnUse">
<stop stop-color="#9BC3EA"/>
<stop offset="0.1927" stop-color="#A2C7EB"/>
<stop offset="0.464" stop-color="#B4D2EF"/>
<stop offset="0.7805" stop-color="#D2E5F5"/>
<stop offset="1" stop-color="#EBF4FA"/>
</linearGradient>
<linearGradient id="paint9_linear_13_121" x1="361.216" y1="97.8362" x2="366.784" y2="97.8362" gradientUnits="userSpaceOnUse">
<stop stop-color="#9BC3EA"/>
<stop offset="0.1927" stop-color="#A2C7EB"/>
<stop offset="0.464" stop-color="#B4D2EF"/>
<stop offset="0.7805" stop-color="#D2E5F5"/>
<stop offset="1" stop-color="#EBF4FA"/>
</linearGradient>
<linearGradient id="paint10_linear_13_121" x1="390.078" y1="47.7366" x2="398.767" y2="47.7366" gradientUnits="userSpaceOnUse">
<stop stop-color="#9BC3EA"/>
<stop offset="0.1927" stop-color="#A2C7EB"/>
<stop offset="0.464" stop-color="#B4D2EF"/>
<stop offset="0.7805" stop-color="#D2E5F5"/>
<stop offset="1" stop-color="#EBF4FA"/>
</linearGradient>
<linearGradient id="paint11_linear_13_121" x1="374.868" y1="96.1036" x2="376.297" y2="96.1036" gradientUnits="userSpaceOnUse">
<stop stop-color="#9BC3EA"/>
<stop offset="0.1927" stop-color="#A2C7EB"/>
<stop offset="0.464" stop-color="#B4D2EF"/>
<stop offset="0.7805" stop-color="#D2E5F5"/>
<stop offset="1" stop-color="#EBF4FA"/>
</linearGradient>
<linearGradient id="paint12_linear_13_121" x1="311.115" y1="72.3466" x2="408.729" y2="72.3466" gradientUnits="userSpaceOnUse">
<stop stop-color="#04192E"/>
<stop offset="0.1927" stop-color="#A2C7EB"/>
<stop offset="0.464" stop-color="#B4D2EF"/>
<stop offset="0.7805" stop-color="#D2E5F5"/>
<stop offset="1" stop-color="#0699FB"/>
</linearGradient>
<linearGradient id="paint13_linear_13_121" x1="472.407" y1="112.755" x2="472.407" y2="182.561" gradientUnits="userSpaceOnUse">
<stop stop-color="#E905EE"/>
<stop offset="1" stop-color="#990C0C"/>
</linearGradient>
<linearGradient id="paint14_linear_13_121" x1="430.688" y1="134.643" x2="430.688" y2="173.688" gradientUnits="userSpaceOnUse">
<stop offset="0.572917" stop-color="#EEEEEE"/>
<stop offset="1" stop-color="#F9FAFF" stop-opacity="0"/>
</linearGradient>
<linearGradient id="paint15_linear_13_121" x1="446.89" y1="122.457" x2="446.89" y2="173.806" gradientUnits="userSpaceOnUse">
<stop offset="0.572917" stop-color="#EEEEEE"/>
<stop offset="1" stop-color="#F9FAFF" stop-opacity="0"/>
</linearGradient>
<linearGradient id="paint16_linear_13_121" x1="463.226" y1="140.677" x2="463.226" y2="173.688" gradientUnits="userSpaceOnUse">
<stop offset="0.572917" stop-color="#EEEEEE"/>
<stop offset="1" stop-color="#F9FAFF" stop-opacity="0"/>
</linearGradient>
<linearGradient id="paint17_linear_13_121" x1="479.428" y1="133.342" x2="479.428" y2="173.806" gradientUnits="userSpaceOnUse">
<stop offset="0.572917" stop-color="#EEEEEE"/>
<stop offset="1" stop-color="#F9FAFF" stop-opacity="0"/>
</linearGradient>
<linearGradient id="paint18_linear_13_121" x1="495.629" y1="128.373" x2="495.629" y2="173.688" gradientUnits="userSpaceOnUse">
<stop offset="0.572917" stop-color="#EEEEEE"/>
<stop offset="1" stop-color="#F9FAFF" stop-opacity="0"/>
</linearGradient>
<linearGradient id="paint19_linear_13_121" x1="511.83" y1="133.342" x2="511.83" y2="173.806" gradientUnits="userSpaceOnUse">
<stop offset="0.572917" stop-color="#EEEEEE"/>
<stop offset="1" stop-color="#F9FAFF" stop-opacity="0"/>
</linearGradient>
</defs>
</svg>
